<?xml version="1.0" encoding="UTF-8" standalone="no"?>
<!-- Created with Inkscape (http://www.inkscape.org/) -->

<svg
   xmlns:dc="http://purl.org/dc/elements/1.1/"
   xmlns:cc="http://creativecommons.org/ns#"
   xmlns:rdf="http://www.w3.org/1999/02/22-rdf-syntax-ns#"
   xmlns:svg="http://www.w3.org/2000/svg"
   xmlns="http://www.w3.org/2000/svg"
   xmlns:sodipodi="http://sodipodi.sourceforge.net/DTD/sodipodi-0.dtd"
   xmlns:inkscape="http://www.inkscape.org/namespaces/inkscape"
   id="svg2"
   version="1.1"
   inkscape:version="0.48.4 r9939"
   width="128"
   height="128"
   xml:space="preserve"
   sodipodi:docname="application-icon.svg"
   inkscape:export-filename="/home/stefanha/jammr/application-icon.png"
   inkscape:export-xdpi="33.75"
   inkscape:export-ydpi="33.75"><metadata
     id="metadata8"><rdf:RDF><cc:Work
         rdf:about=""><dc:format>image/svg+xml</dc:format><dc:type
           rdf:resource="http://purl.org/dc/dcmitype/StillImage" /><dc:title></dc:title></cc:Work></rdf:RDF></metadata><defs
     id="defs6" /><sodipodi:namedview
     pagecolor="#ffffff"
     bordercolor="#666666"
     borderopacity="1"
     objecttolerance="10"
     gridtolerance="10"
     guidetolerance="10"
     inkscape:pageopacity="0"
     inkscape:pageshadow="2"
     inkscape:window-width="1366"
     inkscape:window-height="709"
     id="namedview4"
     showgrid="false"
     showguides="true"
     inkscape:guide-bbox="true"
     fit-margin-top="0"
     fit-margin-left="0"
     fit-margin-right="0"
     fit-margin-bottom="0"
     units="px"
     inkscape:zoom="3.984375"
     inkscape:cx="64"
     inkscape:cy="64"
     inkscape:window-x="0"
     inkscape:window-y="27"
     inkscape:window-maximized="1"
     inkscape:current-layer="g10" /><g
     id="g10"
     inkscape:groupmode="layer"
     inkscape:label="facebook cover"
     transform="matrix(1.25,0,0,-1.25,-20.083414,397.37919)"><path
       sodipodi:type="arc"
       style="fill:#3d3d3d;fill-opacity:1;stroke:#000000;stroke-width:0.20000000000000001;stroke-linejoin:miter;stroke-miterlimit:4;stroke-opacity:1;stroke-dasharray:none;stroke-dashoffset:0"
       id="path3084"
       sodipodi:cx="64"
       sodipodi:cy="64"
       sodipodi:rx="60.988235"
       sodipodi:ry="60.988235"
       d="M 124.98824,64 A 60.988235,60.988235 0 1 1 3.0117645,64 60.988235,60.988235 0 1 1 124.98824,64 z"
       transform="matrix(0.8,0,0,-0.8,16.066731,317.90335)" /><g
       id="g52"
       transform="matrix(0.73493369,0,0,0.73493369,74.482328,251.61951)"><path
         d="M 0,0 -5.161,1.982 22.699,66.557 27.755,64.696 0,0 z"
         style="fill:#fdd927;fill-opacity:1;fill-rule:nonzero;stroke:none"
         id="path54"
         inkscape:connector-curvature="0" /></g><g
       id="g56"
       transform="translate(54.247731,256.72935)"><path
         d="m 4.8964579,1.5446943 c -8.4363039,0 -15.2726579,-4.4147463 -15.2726579,-9.8620751 0,-2.3510532 1.278051,-4.5066132 3.4049485,-6.2006352 l -2.1246925,-8.503184 9.3902471,5.301813 c 1.4529639,-0.295444 2.9977945,-0.457129 4.6021548,-0.457129 8.4333651,0 15.2682471,4.413277 15.2682471,9.8591352 0,5.4473288 -6.834882,9.8620751 -15.2682471,9.8620751 z"
         style="fill:none;stroke:#fdd927;stroke-width:4.40960217;stroke-linecap:butt;stroke-linejoin:miter;stroke-miterlimit:4;stroke-opacity:1;stroke-dasharray:none"
         id="path58"
         inkscape:connector-curvature="0" /></g><g
       id="g60"
       transform="matrix(0.73493369,0,0,0.73493369,92.495037,293.72099)"><path
         d="m 0,0 c -14.491,-21.879 28.305,-55.073 -19.536,-67.114 l 0.977,3.58 c 25.547,4.555 20.34,27.987 5.949,40.454 3.069,8.342 6.423,23.701 8.344,24.56"
         style="fill:#fdd927;fill-opacity:1;fill-rule:nonzero;stroke:none"
         id="path62"
         inkscape:connector-curvature="0" /></g><g
       id="g64"
       transform="matrix(0.73493369,0,0,0.73493369,62.452787,258.26832)"><path
         d="m 8,0 c 3.633,-1.32 5.343,-2.136 7.811,3.255 0.652,1.431 8.543,6.671 8.543,6.671 0,0 -1.657,-4.302 -4.963,-12.203 -2.86,-6.845 1.169,-10.809 -1.78,-15.961 C 18.546,-10.406 8,0 8,0"
         style="fill:#fdd927;fill-opacity:1;fill-rule:nonzero;stroke:none"
         id="path66"
         inkscape:connector-curvature="0" /></g></g></svg>