<?xml version="1.0" encoding="UTF-8" standalone="no"?>
<!-- Created with Inkscape (http://www.inkscape.org/) -->

<svg
   xmlns:dc="http://purl.org/dc/elements/1.1/"
   xmlns:cc="http://creativecommons.org/ns#"
   xmlns:rdf="http://www.w3.org/1999/02/22-rdf-syntax-ns#"
   xmlns:svg="http://www.w3.org/2000/svg"
   xmlns="http://www.w3.org/2000/svg"
   xmlns:sodipodi="http://sodipodi.sourceforge.net/DTD/sodipodi-0.dtd"
   xmlns:inkscape="http://www.inkscape.org/namespaces/inkscape"
   width="625.00122"
   height="320.625"
   id="svg5007"
   version="1.1"
   inkscape:version="0.48.4 r9939"
   inkscape:export-filename="/tmp/laptop.png"
   inkscape:export-xdpi="68.831863"
   inkscape:export-ydpi="68.831863"
   sodipodi:docname="New document 7">
  <defs
     id="defs5009">
    <linearGradient
       x1="0"
       y1="0"
       x2="1"
       y2="0"
       gradientUnits="userSpaceOnUse"
       gradientTransform="matrix(82.499023,0,0,-82.499023,246.27051,532.66357)"
       spreadMethod="pad"
       id="linearGradient422">
      <stop
         style="stop-opacity:1;stop-color:#4d4c4e"
         offset="0"
         id="stop424" />
      <stop
         style="stop-opacity:1;stop-color:#d2d4d5"
         offset="0.110428"
         id="stop426" />
      <stop
         style="stop-opacity:1;stop-color:#e7e8e9"
         offset="0.503067"
         id="stop428" />
      <stop
         style="stop-opacity:1;stop-color:#d2d4d5"
         offset="0.895706"
         id="stop430" />
      <stop
         style="stop-opacity:1;stop-color:#4d4c4e"
         offset="1"
         id="stop432" />
    </linearGradient>
    <clipPath
       clipPathUnits="userSpaceOnUse"
       id="clipPath402">
      <path
         inkscape:connector-curvature="0"
         d="m 0,841.89 595.28,0 L 595.28,0 0,0 0,841.89 z"
         id="path404" />
    </clipPath>
    <linearGradient
       x1="0"
       y1="0"
       x2="1"
       y2="0"
       gradientUnits="userSpaceOnUse"
       gradientTransform="matrix(500.00098,0,0,-500.00098,37.56543,532.94678)"
       spreadMethod="pad"
       id="linearGradient380">
      <stop
         style="stop-opacity:1;stop-color:#606163"
         offset="0"
         id="stop382" />
      <stop
         style="stop-opacity:1;stop-color:#e7e8e9"
         offset="0.0245361"
         id="stop384" />
      <stop
         style="stop-opacity:1;stop-color:#bec0c2"
         offset="0.110428"
         id="stop386" />
      <stop
         style="stop-opacity:1;stop-color:#e7e8e9"
         offset="0.527603"
         id="stop388" />
      <stop
         style="stop-opacity:1;stop-color:#bec0c2"
         offset="0.889572"
         id="stop390" />
      <stop
         style="stop-opacity:1;stop-color:#e7e8e9"
         offset="0.975464"
         id="stop392" />
      <stop
         style="stop-opacity:1;stop-color:#747578"
         offset="1"
         id="stop394" />
    </linearGradient>
    <clipPath
       clipPathUnits="userSpaceOnUse"
       id="clipPath326">
      <path
         inkscape:connector-curvature="0"
         d="m 90.582,533.556 394.086,0 0,4.333 -394.086,0 0,-4.333 z"
         id="path328" />
    </clipPath>
    <mask
       maskUnits="userSpaceOnUse"
       x="0"
       y="0"
       width="1"
       height="1"
       id="mask344">
      <g
         id="g346">
        <g
           id="g348">
          <g
             id="g350">
            <g
               id="g352">
              <path
                 inkscape:connector-curvature="0"
                 d="m -32768,32767 65535,0 0,-65534 -65535,0 0,65534 z"
                 style="fill:url(#linearGradient338);stroke:none"
                 id="path354" />
            </g>
          </g>
        </g>
      </g>
    </mask>
    <linearGradient
       x1="0"
       y1="0"
       x2="1"
       y2="0"
       gradientUnits="userSpaceOnUse"
       gradientTransform="matrix(0,4.3339844,4.3339844,0,287.62549,533.55566)"
       spreadMethod="pad"
       id="linearGradient338">
      <stop
         style="stop-opacity:1;stop-color:#ffffff"
         offset="0"
         id="stop340" />
      <stop
         style="stop-opacity:0;stop-color:#ffffff"
         offset="1"
         id="stop342" />
    </linearGradient>
    <linearGradient
       x1="0"
       y1="0"
       x2="1"
       y2="0"
       gradientUnits="userSpaceOnUse"
       gradientTransform="matrix(0,4.3339844,4.3339844,0,287.62549,533.55566)"
       spreadMethod="pad"
       id="linearGradient360">
      <stop
         style="stop-opacity:1;stop-color:#373535"
         offset="0"
         id="stop362" />
      <stop
         style="stop-opacity:1;stop-color:#373535"
         offset="1"
         id="stop364" />
    </linearGradient>
    <clipPath
       clipPathUnits="userSpaceOnUse"
       id="clipPath254">
      <path
         inkscape:connector-curvature="0"
         d="m 0,841.89 595.28,0 L 595.28,0 0,0 0,841.89 z"
         id="path256" />
    </clipPath>
    <clipPath
       clipPathUnits="userSpaceOnUse"
       id="clipPath262">
      <path
         inkscape:connector-curvature="0"
         d="m 287.769,768.278 0.998,0 0,-0.989 -0.998,0 0,0.989 z"
         id="path264" />
    </clipPath>
    <linearGradient
       x1="0"
       y1="0"
       x2="1"
       y2="0"
       gradientUnits="userSpaceOnUse"
       gradientTransform="matrix(0.9985352,0,0,-0.9985352,287.76855,767.7832)"
       spreadMethod="pad"
       id="linearGradient270">
      <stop
         style="stop-opacity:1;stop-color:#ffffff"
         offset="0"
         id="stop272" />
      <stop
         style="stop-opacity:1;stop-color:#37ade2"
         offset="1"
         id="stop274" />
    </linearGradient>
    <clipPath
       clipPathUnits="userSpaceOnUse"
       id="clipPath294">
      <path
         inkscape:connector-curvature="0"
         d="m 287.769,768.278 0.998,0 0,-0.989 -0.998,0 0,0.989 z"
         id="path296" />
    </clipPath>
    <linearGradient
       x1="0"
       y1="0"
       x2="1"
       y2="0"
       gradientUnits="userSpaceOnUse"
       gradientTransform="matrix(0.9985352,0,0,-0.9985352,287.76855,767.7832)"
       spreadMethod="pad"
       id="linearGradient302">
      <stop
         style="stop-opacity:1;stop-color:#ffffff"
         offset="0"
         id="stop304" />
      <stop
         style="stop-opacity:1;stop-color:#37ade2"
         offset="1"
         id="stop306" />
    </linearGradient>
    <linearGradient
       x1="0"
       y1="0"
       x2="1"
       y2="0"
       gradientUnits="userSpaceOnUse"
       gradientTransform="matrix(2.8295898,0,0,-2.8295898,286.15088,768.0293)"
       spreadMethod="pad"
       id="linearGradient242">
      <stop
         style="stop-opacity:1;stop-color:#373535"
         offset="0"
         id="stop244" />
      <stop
         style="stop-opacity:1;stop-color:#565658"
         offset="1"
         id="stop246" />
    </linearGradient>
    <linearGradient
       x1="0"
       y1="0"
       x2="1"
       y2="0"
       gradientUnits="userSpaceOnUse"
       gradientTransform="matrix(3.9633789,0,0,-3.9633789,285.58398,768.0293)"
       spreadMethod="pad"
       id="linearGradient222">
      <stop
         style="stop-opacity:1;stop-color:#565658"
         offset="0"
         id="stop224" />
      <stop
         style="stop-opacity:1;stop-color:#373535"
         offset="1"
         id="stop226" />
    </linearGradient>
    <linearGradient
       x1="0"
       y1="0"
       x2="1"
       y2="0"
       gradientUnits="userSpaceOnUse"
       gradientTransform="matrix(3.9633789,0,0,-3.9633789,285.58398,768.0293)"
       spreadMethod="pad"
       id="linearGradient202">
      <stop
         style="stop-opacity:1;stop-color:#373535"
         offset="0"
         id="stop204" />
      <stop
         style="stop-opacity:1;stop-color:#565658"
         offset="1"
         id="stop206" />
    </linearGradient>
    <linearGradient
       x1="0"
       y1="0"
       x2="1"
       y2="0"
       gradientUnits="userSpaceOnUse"
       gradientTransform="matrix(5.097168,0,0,-5.097168,285.01709,768.0293)"
       spreadMethod="pad"
       id="linearGradient182">
      <stop
         style="stop-opacity:1;stop-color:#373535"
         offset="0"
         id="stop184" />
      <stop
         style="stop-opacity:1;stop-color:#565658"
         offset="1"
         id="stop186" />
    </linearGradient>
    <linearGradient
       x1="0"
       y1="0"
       x2="1"
       y2="0"
       gradientUnits="userSpaceOnUse"
       gradientTransform="matrix(0,10.167969,10.167969,0,287.52002,522.05469)"
       spreadMethod="pad"
       id="linearGradient160">
      <stop
         style="stop-opacity:1;stop-color:#373535"
         offset="0"
         id="stop162" />
      <stop
         style="stop-opacity:1;stop-color:#96989b"
         offset="0.846619"
         id="stop164" />
      <stop
         style="stop-opacity:1;stop-color:#d2d4d5"
         offset="1"
         id="stop166" />
    </linearGradient>
    <clipPath
       clipPathUnits="userSpaceOnUse"
       id="clipPath86">
      <path
         inkscape:connector-curvature="0"
         d="m 0,841.89 595.28,0 L 595.28,0 0,0 0,841.89 z"
         id="path88" />
    </clipPath>
    <clipPath
       clipPathUnits="userSpaceOnUse"
       id="clipPath94">
      <path
         inkscape:connector-curvature="0"
         d="m 280.479,775.72 203.086,0 0,-250 -203.086,0 0,250 z"
         id="path96" />
    </clipPath>
    <clipPath
       clipPathUnits="userSpaceOnUse"
       id="clipPath98">
      <path
         inkscape:connector-curvature="0"
         d="m 471.565,775.72 -71.293,0 -119.793,-250 191.086,0 c 6.627,0 12,5.373 12,12 l 0,226 c 0,6.628 -5.373,12 -12,12"
         id="path100" />
    </clipPath>
    <mask
       maskUnits="userSpaceOnUse"
       x="0"
       y="0"
       width="1"
       height="1"
       id="mask112">
      <g
         id="g114">
        <g
           id="g116">
          <g
             id="g118">
            <g
               id="g120">
              <path
                 inkscape:connector-curvature="0"
                 d="m -32768,32767 65535,0 0,-65534 -65535,0 0,65534 z"
                 style="fill:url(#linearGradient106);stroke:none"
                 id="path122" />
            </g>
          </g>
        </g>
      </g>
    </mask>
    <linearGradient
       x1="0"
       y1="0"
       x2="1"
       y2="0"
       gradientUnits="userSpaceOnUse"
       gradientTransform="matrix(232.79623,209.61069,209.61069,-232.79623,288.94922,516.31299)"
       spreadMethod="pad"
       id="linearGradient106">
      <stop
         style="stop-opacity:0;stop-color:#ffffff"
         offset="0"
         id="stop108" />
      <stop
         style="stop-opacity:1;stop-color:#ffffff"
         offset="1"
         id="stop110" />
    </linearGradient>
    <linearGradient
       x1="0"
       y1="0"
       x2="1"
       y2="0"
       gradientUnits="userSpaceOnUse"
       gradientTransform="matrix(232.79623,209.61069,209.61069,-232.79623,288.94922,516.31299)"
       spreadMethod="pad"
       id="linearGradient124">
      <stop
         style="stop-opacity:1;stop-color:#ffffff"
         offset="0"
         id="stop126" />
      <stop
         style="stop-opacity:1;stop-color:#ffffff"
         offset="1"
         id="stop128" />
    </linearGradient>
    <clipPath
       clipPathUnits="userSpaceOnUse"
       id="clipPath3900">
      <path
         inkscape:connector-curvature="0"
         d="M 0,315 851,315 851,0 0,0 0,315 z"
         id="path3902" />
    </clipPath>
    <clipPath
       clipPathUnits="userSpaceOnUse"
       id="clipPath68">
      <path
         inkscape:connector-curvature="0"
         d="m 0,841.89 595.28,0 L 595.28,0 0,0 0,841.89 z"
         id="path70" />
    </clipPath>
    <clipPath
       clipPathUnits="userSpaceOnUse"
       id="clipPath48">
      <path
         inkscape:connector-curvature="0"
         d="m 103.566,775.72 c -6.628,0 -12.001,-5.372 -12.001,-12 l 0,0 0,-226.001 c 0,-6.626 5.373,-11.999 12.001,-11.999 l 0,0 368,0 c 6.627,0 11.999,5.373 11.999,11.999 l 0,0 0,226.001 c 0,6.628 -5.372,12 -11.999,12 l 0,0 -368,0 z"
         id="path50" />
    </clipPath>
    <linearGradient
       x1="0"
       y1="0"
       x2="1"
       y2="0"
       gradientUnits="userSpaceOnUse"
       gradientTransform="matrix(357.07043,-278.97403,-278.97403,-357.07043,109.02979,790.20752)"
       spreadMethod="pad"
       id="linearGradient56">
      <stop
         style="stop-opacity:1;stop-color:#aaacae"
         offset="0"
         id="stop58" />
      <stop
         style="stop-opacity:1;stop-color:#e7e8e9"
         offset="1"
         id="stop60" />
    </linearGradient>
    <clipPath
       clipPathUnits="userSpaceOnUse"
       id="clipPath36">
      <path
         inkscape:connector-curvature="0"
         d="m 0,841.89 595.28,0 L 595.28,0 0,0 0,841.89 z"
         id="path38" />
    </clipPath>
    <clipPath
       clipPathUnits="userSpaceOnUse"
       id="clipPath16">
      <path
         inkscape:connector-curvature="0"
         d="m 103.566,778.555 c -8.18,0 -14.835,-6.655 -14.835,-14.835 l 0,0 0,-226.001 c 0,-8.179 6.655,-14.833 14.835,-14.833 l 0,0 368,0 c 8.179,0 14.834,6.654 14.834,14.833 l 0,0 0,226.001 c 0,8.18 -6.655,14.835 -14.834,14.835 l 0,0 -368,0 z"
         id="path18" />
    </clipPath>
    <linearGradient
       x1="0"
       y1="0"
       x2="1"
       y2="0"
       gradientUnits="userSpaceOnUse"
       gradientTransform="matrix(103.32112,-337.94821,-337.94821,-103.32112,235.90527,819.69434)"
       spreadMethod="pad"
       id="linearGradient24">
      <stop
         style="stop-opacity:1;stop-color:#aaacae"
         offset="0"
         id="stop26" />
      <stop
         style="stop-opacity:1;stop-color:#e7e8e9"
         offset="1"
         id="stop28" />
    </linearGradient>
  </defs>
  <sodipodi:namedview
     id="base"
     pagecolor="#ffffff"
     bordercolor="#666666"
     borderopacity="1.0"
     inkscape:pageopacity="0.0"
     inkscape:pageshadow="2"
     inkscape:zoom="0.98994949"
     inkscape:cx="366.35777"
     inkscape:cy="206.2804"
     inkscape:document-units="px"
     inkscape:current-layer="g3898"
     showgrid="false"
     fit-margin-top="0"
     fit-margin-left="0"
     fit-margin-right="0"
     fit-margin-bottom="0"
     inkscape:window-width="1920"
     inkscape:window-height="1021"
     inkscape:window-x="0"
     inkscape:window-y="27"
     inkscape:window-maximized="1" />
  <metadata
     id="metadata5012">
    <rdf:RDF>
      <cc:Work
         rdf:about="">
        <dc:format>image/svg+xml</dc:format>
        <dc:type
           rdf:resource="http://purl.org/dc/dcmitype/StillImage" />
        <dc:title></dc:title>
      </cc:Work>
    </rdf:RDF>
  </metadata>
  <g
     inkscape:label="Layer 1"
     inkscape:groupmode="layer"
     id="layer1"
     transform="translate(-8.642232,-22.04965)">
    <g
       transform="matrix(1.25,0,0,-1.25,-38.314018,995.2434)"
       id="g12">
      <g
         id="g14"
         clip-path="url(#clipPath16)">
        <g
           id="g20">
          <g
             id="g22">
            <path
               inkscape:connector-curvature="0"
               d="m 103.566,778.555 c -8.18,0 -14.835,-6.655 -14.835,-14.835 l 0,0 0,-226.001 c 0,-8.179 6.655,-14.833 14.835,-14.833 l 0,0 368,0 c 8.179,0 14.834,6.654 14.834,14.833 l 0,0 0,226.001 c 0,8.18 -6.655,14.835 -14.834,14.835 l 0,0 -368,0 z"
               style="fill:url(#linearGradient24);stroke:none"
               id="path30" />
          </g>
        </g>
      </g>
    </g>
    <g
       transform="matrix(1.25,0,0,-1.25,-38.314018,995.2434)"
       id="g32">
      <g
         id="g34"
         clip-path="url(#clipPath36)">
        <g
           id="g40"
           transform="translate(103.5654,524.3037)">
          <path
             inkscape:connector-curvature="0"
             d="m 0,0 c -7.398,0 -13.417,6.018 -13.417,13.416 l 0,226.001 c 0,7.398 6.019,13.417 13.417,13.417 l 368,0 c 7.398,0 13.417,-6.019 13.417,-13.417 l 0,-226.001 C 381.417,6.018 375.398,0 368,0 L 0,0 z"
             style="fill:#373535;fill-opacity:1;fill-rule:nonzero;stroke:none"
             id="path42" />
        </g>
      </g>
    </g>
    <g
       transform="matrix(1.25,0,0,-1.25,-38.314018,995.2434)"
       id="g44">
      <g
         id="g46"
         clip-path="url(#clipPath48)">
        <g
           id="g52">
          <g
             id="g54">
            <path
               inkscape:connector-curvature="0"
               d="m 103.566,775.72 c -6.628,0 -12.001,-5.372 -12.001,-12 l 0,0 0,-226.001 c 0,-6.626 5.373,-11.999 12.001,-11.999 l 0,0 368,0 c 6.627,0 11.999,5.373 11.999,11.999 l 0,0 0,226.001 c 0,6.628 -5.372,12 -11.999,12 l 0,0 -368,0 z"
               style="fill:url(#linearGradient56);stroke:none"
               id="path62" />
          </g>
        </g>
      </g>
    </g>
    <g
       transform="matrix(1.25,0,0,-1.25,-38.314018,995.2434)"
       id="g64">
      <g
         id="g66"
         clip-path="url(#clipPath68)">
        <path
           inkscape:connector-curvature="0"
           d="m 468.027,557.556 -361.014,0 0,202.684 361.014,0 0,-202.684 z"
           style="fill:#ffffff;fill-opacity:1;fill-rule:nonzero;stroke:none"
           id="path72" />
      </g>
    </g>
    <g
       transform="matrix(1.1223259,0,0,-1.1223259,-110.17586,358.53262)"
       id="g3896">
      <g
         id="g3898"
         clip-path="url(#clipPath3900)">
        <g
           id="g3908"
           transform="translate(96.0337,129.2041)" />
        <g
           id="g3924"
           transform="matrix(1.4407871,0,0,1.4407871,392.87003,167.03939)">
          <path
             inkscape:connector-curvature="0"
             d="M 0,0 -5.161,1.982 22.699,66.557 27.755,64.696 0,0 z"
             style="fill:#fdd927;fill-opacity:1;fill-rule:nonzero;stroke:none"
             id="path3926" />
        </g>
        <g
           id="g3928"
           transform="matrix(1.4407871,0,0,1.4407871,362.80066,180.08514)">
          <path
             inkscape:connector-curvature="0"
             d="m 0,0 c -11.479,0 -20.781,-6.007 -20.781,-13.419 0,-3.199 1.739,-6.132 4.633,-8.437 l -2.891,-11.57 12.777,7.214 c 1.977,-0.402 4.079,-0.622 6.262,-0.622 11.475,0 20.775,6.005 20.775,13.415 C 20.775,-6.007 11.475,0 0,0 z"
             style="fill:none;stroke:#fdd927;stroke-width:6;stroke-linecap:butt;stroke-linejoin:miter;stroke-miterlimit:4;stroke-opacity:1;stroke-dasharray:none"
             id="path3930" />
        </g>
        <g
           id="g3932"
           transform="matrix(1.4407871,0,0,1.4407871,428.18271,249.57646)">
          <path
             inkscape:connector-curvature="0"
             d="m 0,0 c -14.491,-21.879 28.305,-55.073 -19.536,-67.114 l 0.977,3.58 c 25.547,4.555 20.34,27.987 5.949,40.454 3.069,8.342 6.423,23.701 8.344,24.56"
             style="fill:#fdd927;fill-opacity:1;fill-rule:nonzero;stroke:none"
             id="path3934" />
        </g>
        <g
           id="g3936"
           transform="translate(400.4604,194.3154)">
          <path
             inkscape:connector-curvature="0"
             d="m -19.64724,-14.24156 c 5.234379,-1.901839 7.698125,-3.077521 11.2539874,4.6897614 0.9393926,2.0617656 12.3086412,9.61148902 12.3086412,9.61148902 0,0 -2.3873836,-6.19826432 -7.1506244,-17.58192242 -4.1206512,-9.86219 1.6842796,-15.573471 -2.5646016,-22.996408 1.3471361,11.284247 -13.8474026,26.27708 -13.8474026,26.27708"
             style="fill:#fdd927;fill-opacity:1;fill-rule:nonzero;stroke:none"
             id="path3938" />
        </g>
        <text
           xml:space="preserve"
           style="font-size:35.64027023px;font-style:normal;font-variant:normal;font-weight:normal;font-stretch:normal;text-align:start;line-height:125%;letter-spacing:0px;word-spacing:0px;writing-mode:lr-tb;text-anchor:start;fill:#000000;fill-opacity:1;stroke:none;font-family:Sans;-inkscape-font-specification:Sans"
           x="276.35767"
           y="-76.6493"
           id="text5436"
           sodipodi:linespacing="125%"
           transform="scale(1,-1)"><tspan
             sodipodi:role="line"
             id="tspan5438"
             x="276.35767"
             y="-76.6493"
             style="font-size:35.64027023px;font-style:normal;font-variant:normal;font-weight:normal;font-stretch:normal;text-align:start;line-height:125%;writing-mode:lr-tb;text-anchor:start;font-family:Sans;-inkscape-font-specification:Sans">Click to jam</tspan></text>
      </g>
    </g>
    <g
       transform="matrix(1.25,0,0,-1.25,-38.314018,995.2434)"
       id="g82">
      <g
         id="g84"
         clip-path="url(#clipPath86)">
        <g
           id="g90">
          <g
             id="g92" />
          <g
             id="g130">
            <g
               style="opacity:0.52999902"
               clip-path="url(#clipPath94)"
               id="g132">
              <g
                 id="g134">
                <g
                   clip-path="url(#clipPath98)"
                   id="g136">
                  <g
                     id="g138">
                    <g
                       id="g140" />
                    <g
                       mask="url(#mask112)"
                       id="g142">
                      <g
                         id="g144">
                        <path
                           inkscape:connector-curvature="0"
                           d="m 471.565,775.72 -71.293,0 -119.793,-250 191.086,0 c 6.627,0 12,5.373 12,12 l 0,226 c 0,6.628 -5.373,12 -12,12"
                           style="fill:url(#linearGradient124);stroke:none"
                           id="path146" />
                      </g>
                    </g>
                  </g>
                </g>
              </g>
            </g>
          </g>
        </g>
      </g>
    </g>
    <g
       transform="matrix(1.25,0,0,-1.25,-38.314018,995.2434)"
       id="g148">
      <g
         id="g150">
        <g
           id="g156">
          <g
             id="g158">
            <path
               inkscape:connector-curvature="0"
               d="m 37.565,532.222 c 0,-5.616 63.012,-10.167 70.284,-10.167 l 0,0 361.246,0 c 7.274,0 68.38,4.55 68.38,10.167 l 0,0 -499.91,0 z"
               style="fill:url(#linearGradient160);stroke:none"
               id="path168" />
          </g>
        </g>
      </g>
    </g>
    <g
       transform="matrix(1.25,0,0,-1.25,-38.314018,995.2434)"
       id="g170">
      <g
         id="g172">
        <g
           id="g178">
          <g
             id="g180">
            <path
               inkscape:connector-curvature="0"
               d="m 285.017,768.029 c 0,-1.407 1.142,-2.548 2.549,-2.548 l 0,0 c 1.407,0 2.548,1.141 2.548,2.548 l 0,0 c 0,1.408 -1.141,2.549 -2.548,2.549 l 0,0 c -1.407,0 -2.549,-1.141 -2.549,-2.549"
               style="fill:url(#linearGradient182);stroke:none"
               id="path188" />
          </g>
        </g>
      </g>
    </g>
    <g
       transform="matrix(1.25,0,0,-1.25,-38.314018,995.2434)"
       id="g190">
      <g
         id="g192">
        <g
           id="g198">
          <g
             id="g200">
            <path
               inkscape:connector-curvature="0"
               d="m 285.584,768.029 c 0,-1.092 0.889,-1.981 1.982,-1.981 l 0,0 c 1.093,0 1.981,0.889 1.981,1.981 l 0,0 c 0,1.093 -0.888,1.982 -1.981,1.982 l 0,0 c -1.093,0 -1.982,-0.889 -1.982,-1.982"
               style="fill:url(#linearGradient202);stroke:none"
               id="path208" />
          </g>
        </g>
      </g>
    </g>
    <g
       transform="matrix(1.25,0,0,-1.25,-38.314018,995.2434)"
       id="g210">
      <g
         id="g212">
        <g
           id="g218">
          <g
             id="g220">
            <path
               inkscape:connector-curvature="0"
               d="m 285.584,768.029 c 0,-1.092 0.889,-1.981 1.982,-1.981 l 0,0 c 1.093,0 1.981,0.889 1.981,1.981 l 0,0 c 0,1.093 -0.888,1.982 -1.981,1.982 l 0,0 c -1.093,0 -1.982,-0.889 -1.982,-1.982"
               style="fill:url(#linearGradient222);stroke:none"
               id="path228" />
          </g>
        </g>
      </g>
    </g>
    <g
       transform="matrix(1.25,0,0,-1.25,-38.314018,995.2434)"
       id="g230">
      <g
         id="g232">
        <g
           id="g238">
          <g
             id="g240">
            <path
               inkscape:connector-curvature="0"
               d="m 286.15,768.029 c 0,-0.78 0.636,-1.414 1.416,-1.414 l 0,0 c 0.78,0 1.414,0.634 1.414,1.414 l 0,0 c 0,0.781 -0.634,1.415 -1.414,1.415 l 0,0 c -0.78,0 -1.416,-0.634 -1.416,-1.415"
               style="fill:url(#linearGradient242);stroke:none"
               id="path248" />
          </g>
        </g>
      </g>
    </g>
    <g
       transform="matrix(1.25,0,0,-1.25,-38.314018,995.2434)"
       id="g250">
      <g
         id="g252"
         clip-path="url(#clipPath254)">
        <g
           id="g258">
          <g
             id="g260" />
          <g
             id="g276">
            <g
               style="opacity:0.38999903"
               clip-path="url(#clipPath262)"
               id="g278">
              <g
                 id="g280">
                <g
                   id="g282">
                  <g
                     id="g284">
                    <g
                       id="g286">
                      <path
                         inkscape:connector-curvature="0"
                         d="m 288.767,767.783 c 0,-0.273 -0.224,-0.494 -0.499,-0.494 -0.276,0 -0.499,0.221 -0.499,0.494 0,0.274 0.223,0.495 0.499,0.495 0.275,0 0.499,-0.221 0.499,-0.495"
                         style="fill:url(#linearGradient270);stroke:none"
                         id="path288" />
                    </g>
                  </g>
                </g>
              </g>
            </g>
          </g>
        </g>
        <g
           id="g290">
          <g
             id="g292" />
          <g
             id="g308">
            <g
               style="opacity:0.38999903"
               clip-path="url(#clipPath294)"
               id="g310">
              <g
                 id="g312">
                <g
                   id="g314">
                  <g
                     id="g316">
                    <g
                       id="g318">
                      <path
                         inkscape:connector-curvature="0"
                         d="m 288.767,767.783 c 0,-0.273 -0.224,-0.494 -0.499,-0.494 -0.276,0 -0.499,0.221 -0.499,0.494 0,0.274 0.223,0.495 0.499,0.495 0.275,0 0.499,-0.221 0.499,-0.495"
                         style="fill:url(#linearGradient302);stroke:none"
                         id="path320" />
                    </g>
                  </g>
                </g>
              </g>
            </g>
          </g>
        </g>
      </g>
    </g>
    <g
       transform="matrix(1.25,0,0,-1.25,-38.314018,995.2434)"
       id="g322">
      <g
         id="g324"
         clip-path="url(#clipPath326)">
        <g
           id="g330">
          <g
             id="g332" />
          <g
             id="g356"
             mask="url(#mask344)">
            <g
               id="g358">
              <path
                 inkscape:connector-curvature="0"
                 d="m 90.582,533.556 394.086,0 0,4.333 -394.086,0 0,-4.333 z"
                 style="fill:url(#linearGradient360);stroke:none"
                 id="path366" />
            </g>
          </g>
        </g>
      </g>
    </g>
    <g
       transform="matrix(1.25,0,0,-1.25,-38.314018,995.2434)"
       id="g368">
      <g
         id="g370">
        <g
           id="g376">
          <g
             id="g378">
            <path
               inkscape:connector-curvature="0"
               d="m 37.565,531.67 500.001,0 0,2.552 -500.001,0 0,-2.552 z"
               style="fill:url(#linearGradient380);stroke:none"
               id="path396" />
          </g>
        </g>
      </g>
    </g>
    <g
       transform="matrix(1.25,0,0,-1.25,-38.314018,995.2434)"
       id="g398">
      <g
         id="g400"
         clip-path="url(#clipPath402)">
        <g
           id="g406"
           transform="translate(328.7695,532.8164)">
          <path
             inkscape:connector-curvature="0"
             d="m 0,0 c 0,-1.202 -1.678,-2.177 -3.75,-2.177 l -74.999,0 c -2.071,0 -3.75,0.975 -3.75,2.177 0,1.202 2.18,0.952 4.251,0.952 L -4.131,0.973 C -2.061,0.973 0,1.202 0,0"
             style="fill:#e7e8e9;fill-opacity:1;fill-rule:nonzero;stroke:none"
             id="path408" />
        </g>
      </g>
    </g>
    <g
       transform="matrix(1.25,0,0,-1.25,-38.314018,995.2434)"
       id="g410">
      <g
         id="g412">
        <g
           id="g418">
          <g
             id="g420">
            <path
               inkscape:connector-curvature="0"
               d="m 324.639,534.229 -74.118,-0.02 c -2.071,0 -4.25,0.25 -4.25,-0.952 l 0,0 c 0,-1.202 1.678,-2.177 3.75,-2.177 l 0,0 74.999,0 c 2.071,0 3.749,0.975 3.749,2.177 l 0,0 c 0,0.87 -1.078,0.99 -2.459,0.99 l 0,0 c -0.527,0 -1.099,-0.018 -1.671,-0.018"
               style="fill:url(#linearGradient422);stroke:none"
               id="path434" />
          </g>
        </g>
      </g>
    </g>
  </g>
</svg>
